<mxfile host="app.diagrams.net" modified="2023-06-30T19:54:33.939Z" agent="Mozilla/5.0 (X11; Linux x86_64; rv:108.0) Gecko/20100101 Firefox/108.0" etag="AJ6pSWmTlsiJFpEeoZEL" version="21.5.2" type="device">
  <diagram name="Page-1" id="QDfFvY-H9rWFnQ-WUK-m">
    <mxGraphModel dx="1781" dy="547" grid="1" gridSize="10" guides="1" tooltips="1" connect="1" arrows="1" fold="1" page="1" pageScale="1" pageWidth="827" pageHeight="1169" math="0" shadow="0">
      <root>
        <mxCell id="0" />
        <mxCell id="1" parent="0" />
        <mxCell id="lZdME3Nn1fXITaDIao4x-1" value="" style="shape=umlLifeline;perimeter=lifelinePerimeter;whiteSpace=wrap;html=1;container=1;dropTarget=0;collapsible=0;recursiveResize=0;outlineConnect=0;portConstraint=eastwest;newEdgeStyle={&quot;edgeStyle&quot;:&quot;elbowEdgeStyle&quot;,&quot;elbow&quot;:&quot;vertical&quot;,&quot;curved&quot;:0,&quot;rounded&quot;:0};participant=umlActor;" parent="1" vertex="1">
          <mxGeometry x="-90" y="60" width="20" height="820" as="geometry" />
        </mxCell>
        <mxCell id="lZdME3Nn1fXITaDIao4x-2" value="Sistema" style="shape=umlLifeline;perimeter=lifelinePerimeter;whiteSpace=wrap;html=1;container=1;dropTarget=0;collapsible=0;recursiveResize=0;outlineConnect=0;portConstraint=eastwest;newEdgeStyle={&quot;edgeStyle&quot;:&quot;elbowEdgeStyle&quot;,&quot;elbow&quot;:&quot;vertical&quot;,&quot;curved&quot;:0,&quot;rounded&quot;:0};" parent="1" vertex="1">
          <mxGeometry x="500" y="60" width="100" height="820" as="geometry" />
        </mxCell>
        <mxCell id="lZdME3Nn1fXITaDIao4x-3" value="ALT" style="shape=umlFrame;whiteSpace=wrap;html=1;pointerEvents=0;fillColor=#fff2cc;strokeColor=#d6b656;" parent="1" vertex="1">
          <mxGeometry x="-140" y="130" width="800" height="790" as="geometry" />
        </mxCell>
        <mxCell id="lZdME3Nn1fXITaDIao4x-8" value="&lt;h1&gt;Business Rules&lt;br&gt;&lt;/h1&gt;&lt;p&gt;-noteFinali è valorizzato se e solo se Stato vale &quot;Completato&quot; oppure se Stato non è impostato e l&#39;attributo stato di evento vale &quot;Completato&quot;&lt;br&gt;&lt;/p&gt;&lt;div&gt;-solo uno tra numOc e dataFinRic può essere valorizzato&lt;/div&gt;&lt;div&gt;&lt;br&gt;&lt;/div&gt;&lt;div&gt;-numOc, dataFinRic, periodo sono valorizzati se e solo se ricorrente è valorizzato e vale &quot;sì&quot;&lt;/div&gt;&lt;div&gt;&lt;br&gt;&lt;/div&gt;&lt;div&gt;-propagaModifiche può essere valorizzato se e solo se ricorrente è valorizzato e vale &quot;sì&quot;&lt;br&gt;&lt;/div&gt;&lt;div&gt;&lt;br&gt;&lt;/div&gt;&lt;div&gt;-nella prima operazione, sgancia vale sì se e solo se l&#39;evento corrente è un&#39;occorrenza e si desidera scollegarla dall&#39;evento capofila&lt;br&gt;&lt;/div&gt;" style="text;html=1;strokeColor=none;fillColor=none;spacing=5;spacingTop=-20;whiteSpace=wrap;overflow=hidden;rounded=0;" parent="1" vertex="1">
          <mxGeometry x="751" y="71" width="740" height="510" as="geometry" />
        </mxCell>
        <mxCell id="lZdME3Nn1fXITaDIao4x-13" value="" style="endArrow=none;endFill=0;endSize=12;html=1;rounded=0;fillColor=#0050ef;strokeColor=#001DBC;" parent="1" source="lZdME3Nn1fXITaDIao4x-2" target="lZdME3Nn1fXITaDIao4x-1" edge="1">
          <mxGeometry width="160" relative="1" as="geometry">
            <mxPoint x="290" y="330" as="sourcePoint" />
            <mxPoint x="450" y="330" as="targetPoint" />
            <Array as="points">
              <mxPoint x="230" y="400" />
            </Array>
          </mxGeometry>
        </mxCell>
        <mxCell id="w2duokweiTbNrjkr3cqu-5" value="" style="group" parent="1" vertex="1" connectable="0">
          <mxGeometry x="-110" y="440" width="680" height="180" as="geometry" />
        </mxCell>
        <mxCell id="lZdME3Nn1fXITaDIao4x-16" value="eliminaEvento(evento, propagaModifiche?)" style="html=1;verticalAlign=bottom;endArrow=block;edgeStyle=elbowEdgeStyle;elbow=vertical;curved=0;rounded=0;" parent="w2duokweiTbNrjkr3cqu-5" edge="1">
          <mxGeometry width="80" relative="1" as="geometry">
            <mxPoint x="30" as="sourcePoint" />
            <mxPoint x="660" as="targetPoint" />
            <Array as="points">
              <mxPoint x="330" />
            </Array>
          </mxGeometry>
        </mxCell>
        <mxCell id="w2duokweiTbNrjkr3cqu-4" value="" style="group" parent="w2duokweiTbNrjkr3cqu-5" vertex="1" connectable="0">
          <mxGeometry y="10" width="680" height="170" as="geometry" />
        </mxCell>
        <mxCell id="lZdME3Nn1fXITaDIao4x-18" value="ALT" style="shape=umlFrame;whiteSpace=wrap;html=1;pointerEvents=0;fillColor=#fff2cc;strokeColor=#d6b656;" parent="w2duokweiTbNrjkr3cqu-4" vertex="1">
          <mxGeometry width="680" height="170" as="geometry" />
        </mxCell>
        <mxCell id="lZdME3Nn1fXITaDIao4x-20" value="" style="endArrow=none;endFill=0;endSize=12;html=1;rounded=0;" parent="w2duokweiTbNrjkr3cqu-4" source="lZdME3Nn1fXITaDIao4x-1" target="lZdME3Nn1fXITaDIao4x-2" edge="1">
          <mxGeometry width="160" relative="1" as="geometry">
            <mxPoint x="150" y="-60" as="sourcePoint" />
            <mxPoint x="310" y="-60" as="targetPoint" />
            <Array as="points">
              <mxPoint x="350" y="90" />
              <mxPoint x="360" y="90" />
            </Array>
          </mxGeometry>
        </mxCell>
        <mxCell id="lZdME3Nn1fXITaDIao4x-21" value="eliminazione completata" style="html=1;verticalAlign=bottom;endArrow=none;edgeStyle=elbowEdgeStyle;elbow=vertical;curved=0;rounded=0;endFill=0;startArrow=block;startFill=1;" parent="w2duokweiTbNrjkr3cqu-4" edge="1">
          <mxGeometry width="80" relative="1" as="geometry">
            <mxPoint x="30" y="50" as="sourcePoint" />
            <mxPoint x="660" y="50" as="targetPoint" />
            <Array as="points">
              <mxPoint x="120" y="50" />
              <mxPoint x="210" y="30" />
              <mxPoint x="370" y="20" />
            </Array>
          </mxGeometry>
        </mxCell>
        <mxCell id="w2duokweiTbNrjkr3cqu-2" value="l&#39;evento scelto è in corso" style="html=1;verticalAlign=bottom;endArrow=none;edgeStyle=elbowEdgeStyle;elbow=vertical;curved=0;rounded=0;endFill=0;startArrow=block;startFill=1;" parent="w2duokweiTbNrjkr3cqu-4" edge="1">
          <mxGeometry width="80" relative="1" as="geometry">
            <mxPoint x="30" y="120" as="sourcePoint" />
            <mxPoint x="660" y="120" as="targetPoint" />
            <Array as="points">
              <mxPoint x="120" y="120" />
              <mxPoint x="210" y="100" />
              <mxPoint x="370" y="90" />
            </Array>
          </mxGeometry>
        </mxCell>
        <mxCell id="w2duokweiTbNrjkr3cqu-3" value="" style="shape=umlDestroy;whiteSpace=wrap;html=1;strokeWidth=3;targetShapes=umlLifeline;" parent="w2duokweiTbNrjkr3cqu-4" vertex="1">
          <mxGeometry x="647.5" y="140" width="25" height="20" as="geometry" />
        </mxCell>
        <mxCell id="w2duokweiTbNrjkr3cqu-19" value="" style="group" parent="1" vertex="1" connectable="0">
          <mxGeometry x="10" y="690" width="250" height="30" as="geometry" />
        </mxCell>
        <mxCell id="w2duokweiTbNrjkr3cqu-20" value="" style="group" parent="w2duokweiTbNrjkr3cqu-19" vertex="1" connectable="0">
          <mxGeometry width="250" height="30" as="geometry" />
        </mxCell>
        <mxCell id="w2duokweiTbNrjkr3cqu-21" value="annullaEvento(evento, propagaModifiche?)" style="html=1;verticalAlign=bottom;endArrow=block;edgeStyle=elbowEdgeStyle;elbow=vertical;curved=0;rounded=0;" parent="w2duokweiTbNrjkr3cqu-20" edge="1">
          <mxGeometry width="80" relative="1" as="geometry">
            <mxPoint x="-90" as="sourcePoint" />
            <mxPoint x="540" as="targetPoint" />
            <Array as="points">
              <mxPoint x="210" />
            </Array>
          </mxGeometry>
        </mxCell>
        <mxCell id="w2duokweiTbNrjkr3cqu-22" value="annullamento completato" style="html=1;verticalAlign=bottom;endArrow=none;edgeStyle=elbowEdgeStyle;elbow=vertical;curved=0;rounded=0;endFill=0;startArrow=block;startFill=1;" parent="w2duokweiTbNrjkr3cqu-20" edge="1">
          <mxGeometry width="80" relative="1" as="geometry">
            <mxPoint x="-90" y="30" as="sourcePoint" />
            <mxPoint x="540" y="30" as="targetPoint" />
            <Array as="points">
              <mxPoint y="30" />
              <mxPoint x="90" y="10" />
              <mxPoint x="250" />
            </Array>
          </mxGeometry>
        </mxCell>
        <mxCell id="w2duokweiTbNrjkr3cqu-24" value="" style="group" parent="1" vertex="1" connectable="0">
          <mxGeometry x="-100" y="180" width="680" height="180" as="geometry" />
        </mxCell>
        <mxCell id="lZdME3Nn1fXITaDIao4x-7" value="modificaInformazioniEvento(evento, noteIniziali?, Stato?, noteFinali?, ricorrente?, propagaModifiche?, numOcc?, dataFinRic?, periodo?, sgancia?)" style="html=1;verticalAlign=bottom;endArrow=block;edgeStyle=elbowEdgeStyle;elbow=vertical;curved=0;rounded=0;" parent="w2duokweiTbNrjkr3cqu-24" source="lZdME3Nn1fXITaDIao4x-1" target="lZdME3Nn1fXITaDIao4x-2" edge="1">
          <mxGeometry width="80" relative="1" as="geometry">
            <mxPoint x="460" y="110" as="sourcePoint" />
            <mxPoint x="540" y="110" as="targetPoint" />
            <Array as="points">
              <mxPoint x="310" />
            </Array>
          </mxGeometry>
        </mxCell>
        <mxCell id="w2duokweiTbNrjkr3cqu-23" value="" style="group" parent="w2duokweiTbNrjkr3cqu-24" vertex="1" connectable="0">
          <mxGeometry y="10" width="680" height="170" as="geometry" />
        </mxCell>
        <mxCell id="lZdME3Nn1fXITaDIao4x-9" value="modifica completata" style="html=1;verticalAlign=bottom;endArrow=none;edgeStyle=elbowEdgeStyle;elbow=vertical;curved=0;rounded=0;endFill=0;startArrow=block;startFill=1;" parent="w2duokweiTbNrjkr3cqu-23" source="lZdME3Nn1fXITaDIao4x-1" target="lZdME3Nn1fXITaDIao4x-2" edge="1">
          <mxGeometry width="80" relative="1" as="geometry">
            <mxPoint x="210" y="10" as="sourcePoint" />
            <mxPoint x="650" y="40" as="targetPoint" />
            <Array as="points">
              <mxPoint x="100" y="40" />
              <mxPoint x="190" y="20" />
              <mxPoint x="350" y="10" />
            </Array>
          </mxGeometry>
        </mxCell>
        <mxCell id="lZdME3Nn1fXITaDIao4x-10" value="ALT" style="shape=umlFrame;whiteSpace=wrap;html=1;pointerEvents=0;fillColor=#fff2cc;strokeColor=#d6b656;" parent="w2duokweiTbNrjkr3cqu-23" vertex="1">
          <mxGeometry width="680" height="170" as="geometry" />
        </mxCell>
        <mxCell id="lZdME3Nn1fXITaDIao4x-11" value="" style="endArrow=none;endFill=0;endSize=12;html=1;rounded=0;" parent="w2duokweiTbNrjkr3cqu-23" source="lZdME3Nn1fXITaDIao4x-2" target="lZdME3Nn1fXITaDIao4x-1" edge="1">
          <mxGeometry width="160" relative="1" as="geometry">
            <mxPoint x="330" y="10" as="sourcePoint" />
            <mxPoint x="490" y="10" as="targetPoint" />
            <Array as="points">
              <mxPoint x="320" y="70" />
            </Array>
          </mxGeometry>
        </mxCell>
        <mxCell id="lZdME3Nn1fXITaDIao4x-12" value="" style="shape=umlDestroy;whiteSpace=wrap;html=1;strokeWidth=3;targetShapes=umlLifeline;" parent="w2duokweiTbNrjkr3cqu-23" vertex="1">
          <mxGeometry x="640" y="130" width="20" height="20" as="geometry" />
        </mxCell>
        <mxCell id="lZdME3Nn1fXITaDIao4x-14" value="evento in corso, informazioni non modificabili" style="html=1;verticalAlign=bottom;endArrow=none;edgeStyle=elbowEdgeStyle;elbow=vertical;curved=0;rounded=0;endFill=0;startArrow=block;startFill=1;" parent="w2duokweiTbNrjkr3cqu-23" edge="1">
          <mxGeometry width="80" relative="1" as="geometry">
            <mxPoint x="20" y="110" as="sourcePoint" />
            <mxPoint x="650" y="110" as="targetPoint" />
            <Array as="points">
              <mxPoint x="110" y="110" />
              <mxPoint x="200" y="90" />
              <mxPoint x="360" y="80" />
            </Array>
          </mxGeometry>
        </mxCell>
        <mxCell id="w2duokweiTbNrjkr3cqu-25" value="" style="endArrow=none;endFill=0;endSize=12;html=1;rounded=0;fillColor=#0050ef;strokeColor=#001DBC;" parent="1" source="lZdME3Nn1fXITaDIao4x-1" target="lZdME3Nn1fXITaDIao4x-2" edge="1">
          <mxGeometry width="160" relative="1" as="geometry">
            <mxPoint x="140" y="800" as="sourcePoint" />
            <mxPoint x="300" y="800" as="targetPoint" />
          </mxGeometry>
        </mxCell>
        <mxCell id="w2duokweiTbNrjkr3cqu-26" value="" style="endArrow=none;endFill=0;endSize=12;html=1;rounded=0;fillColor=#0050ef;strokeColor=#001DBC;" parent="1" edge="1">
          <mxGeometry width="160" relative="1" as="geometry">
            <mxPoint x="-80" y="760" as="sourcePoint" />
            <mxPoint x="550" y="760" as="targetPoint" />
          </mxGeometry>
        </mxCell>
        <mxCell id="ZRnrCgxy97fv4_eR-db5-1" value="" style="endArrow=none;endFill=0;endSize=12;html=1;rounded=0;fillColor=#0050ef;strokeColor=#001DBC;" edge="1" parent="1">
          <mxGeometry width="160" relative="1" as="geometry">
            <mxPoint x="-85" y="850" as="sourcePoint" />
            <mxPoint x="545" y="850" as="targetPoint" />
          </mxGeometry>
        </mxCell>
        <mxCell id="ZRnrCgxy97fv4_eR-db5-3" value="chiusuraEvento(evento, noteFinali?, propagaModifiche?)" style="html=1;verticalAlign=bottom;endArrow=block;edgeStyle=elbowEdgeStyle;elbow=vertical;curved=0;rounded=0;" edge="1" parent="1">
          <mxGeometry width="80" relative="1" as="geometry">
            <mxPoint x="-75" y="870" as="sourcePoint" />
            <mxPoint x="555" y="870" as="targetPoint" />
            <Array as="points">
              <mxPoint x="225" y="870" />
            </Array>
          </mxGeometry>
        </mxCell>
        <mxCell id="w2duokweiTbNrjkr3cqu-7" value="chiusuraEvento(evento, noteFinali?, propagaModifiche?)" style="html=1;verticalAlign=bottom;endArrow=block;edgeStyle=elbowEdgeStyle;elbow=vertical;curved=0;rounded=0;" parent="1" edge="1">
          <mxGeometry width="80" relative="1" as="geometry">
            <mxPoint x="-80" y="800" as="sourcePoint" />
            <mxPoint x="550" y="800" as="targetPoint" />
            <Array as="points">
              <mxPoint x="220" y="800" />
            </Array>
          </mxGeometry>
        </mxCell>
        <mxCell id="w2duokweiTbNrjkr3cqu-11" value="chiusura completata" style="html=1;verticalAlign=bottom;endArrow=none;edgeStyle=elbowEdgeStyle;elbow=vertical;curved=0;rounded=0;endFill=0;startArrow=block;startFill=1;" parent="1" edge="1">
          <mxGeometry width="80" relative="1" as="geometry">
            <mxPoint x="-80" y="830" as="sourcePoint" />
            <mxPoint x="550" y="830" as="targetPoint" />
            <Array as="points">
              <mxPoint x="10" y="830" />
              <mxPoint x="100" y="810" />
              <mxPoint x="260" y="800" />
            </Array>
          </mxGeometry>
        </mxCell>
      </root>
    </mxGraphModel>
  </diagram>
</mxfile>
